<svg width="422" height="474" viewBox="0 0 422 474" fill="none" xmlns="http://www.w3.org/2000/svg">
<path fill-rule="evenodd" clip-rule="evenodd" d="M1 364.89L11.15 363.28L7.93 352.007L11.92 285.208L11.85 274.845L8.7 263.922L7.37 240.186L6.95 235.775L6.88 222.961L3.24 212.598L19.27 205.386L31.59 203.286L35.86 202.165L39.5 202.866L45.17 202.095L44.82 199.225L47.83 198.104L65.96 197.264L87.8 195.934L101.03 196.354L104.67 194.533L108.94 194.183L120.14 196.004L126.58 194.603L131.34 195.163L130.99 190.542L132.04 183.33L130.01 175.768L128.68 174.228L129.87 167.996L128.4 163.935L129.8 160.084L138.34 159.594L144.5 158.613L157.8 157.493L159.34 131.586L161.02 130.746L157.31 121.293L152.62 100.077L162.7 82.8525L161.86 72.7698L163.54 66.6781L169.56 57.6456L178.87 56.1752L184.26 56.4553L196.44 58.2758L199.1 65.2777L196.02 66.328L199.8 77.6711L199.52 80.2618L195.11 87.8939L190.42 99.027L198.19 100.918L199.59 117.652L193.01 133.126L193.5 141.669L192.31 144.61L191.89 150.141L193.78 154.902L196.51 154.622L207.43 155.042L211.21 150.491L210.58 136.207L215.34 136.627L222.62 141.109L222.41 136.697L219.96 134.527L219.82 123.604L218.77 122.904L216.32 111.28L220.45 109.88L217.79 104.699L219.61 101.198L218.63 93.3554L216.32 86.7736L216.67 77.8112L215.69 63.3172L217.02 58.6959L217.72 35.2394L218.42 27.0472L228.22 11.6429L235.5 18.3648L239.63 19.5551L245.58 1L252.23 1.63017L260.49 6.53152L259.65 13.9536L251.81 24.3164L242.29 49.4533L237.32 55.8251L233.54 56.6653L232.35 60.4464L239.63 62.1268L263.92 73.61L276.8 76.0607L275.4 81.1721L270.08 90.1346L269.24 93.0053L263.29 105.609L260.63 114.851L254.89 111.07L249.71 111.14L251.6 120.803L249.08 132.146L247.75 144.96L251.32 149.161L254.82 157.423L257.55 160.854L258.04 169.887L256.92 171.847L257.34 175.908L259.44 178.709L261.05 184.941L258.95 189.632L258.46 193.273L259.09 197.824L263.15 199.015L270.71 198.384L280.72 203.566L283.24 203.986L287.44 202.165L286.6 200.135L283.94 186.761L283.17 180.249L283.52 159.104L295.28 161.414L293.74 164.635L293.6 171.147L295.49 176.468L295.28 183.19L296.26 189.212L303.47 189.492L301.72 195.584L298.78 198.454L297.03 203.496L300.11 205.386L308.16 206.016L306.83 213.789L305.92 214.209L305.43 222.821L306.41 233.604L318.17 233.394L346.45 237.175L347.22 230.803L359.61 234.164L371.72 238.015L372.28 239.206L381.38 242.216L383.69 233.464L384.88 233.884L383.97 240.326L384.32 255.87L420.79 269.314L421 273.235L391.39 272.045L398.18 325.749L382.71 317.907L368.29 311.886L364.44 312.306L353.87 308.665L334.76 304.744L333.92 329.881L315.79 332.051L316.77 316.157L318.1 309.995L320.9 301.733L306.76 299.632L294.16 300.823L294.51 331.841L293.67 353.617L274.14 357.888L275.19 363.42L282.82 395.559L285.06 408.232L280.44 409.352L280.86 417.825L284.29 429.798L287.09 435.33L285.06 438.06H271.97L248.17 433.369L228.57 431.549L216.74 429.378L181.74 438.551L173.76 467.398L158.36 473L152.13 457.596L140.3 437.22L133.09 431.339L124.13 427.277L118.67 427.978L110.97 435.96L104.67 438.831L102.43 438.621L99.56 435.89L91.44 436.73L84.58 433.439L81.57 428.258L83.25 417.685L87.24 397.799L80.38 393.108L76.95 392.268L78.35 387.506L80.87 387.156L82.9 362.44L66.38 363.28L66.59 351.026L65.75 343.044L66.24 338.073L58.12 338.563L50.56 342.344L47.06 364.89L41.67 367.971L23.12 384.846L2.12 388.137L1.07 384.916L4.01 383.025L1 364.89Z" fill="white" stroke="#0552B5"/>
</svg>
