<svg width="59" height="377" viewBox="0 0 59 377" fill="none" xmlns="http://www.w3.org/2000/svg">
<path fill-rule="evenodd" clip-rule="evenodd" d="M57.9805 74.5225C56.2559 72.9797 54.1373 71.9484 51.844 71.5347C49.6351 71.1365 49.0434 71.2163 44.3995 72.5401C43.135 72.9007 43.2119 72.4403 44.8282 69.9848C46.9945 66.6944 47.2665 65.7053 47.1332 61.6126C47.0217 58.1952 46.9398 57.876 46.1755 57.876C45.5466 57.876 44.8746 58.7815 43.4593 61.5362C39.2404 69.7487 34.9216 73.5464 29.8014 73.5464C27.8302 73.5464 27.6234 72.7328 29.2769 71.4854C34.3462 67.6618 35.5794 65.8645 38.0436 58.7055C40.1305 52.6429 41.7719 49.4645 44.2244 46.7366C46.3288 44.3961 47.7989 43.5227 50.7378 42.8679C53.2719 42.3034 53.6112 41.5529 51.6944 40.7522C50.5531 40.2754 49.7023 40.234 47.6932 40.5575C44.01 41.1509 43.2507 41.529 40.5253 44.1282C39.1785 45.4132 37.8936 46.3513 37.67 46.213C37.4464 46.0747 36.8514 45.1107 36.3478 44.0702C35.8439 43.0296 34.5647 41.0092 33.505 39.5801C27.1855 31.0587 25.4529 27.4942 25.1725 22.4379C24.9745 18.8709 25.0138 18.6662 26.465 15.7301C28.1198 12.3813 30.1043 10.1122 32.9609 8.30029C34.5869 7.26939 35.263 7.10391 37.8555 7.10391C44.4262 7.10391 49.5803 10.0888 51.4156 14.9567C52.1553 16.9186 52.2848 17.9917 52.1457 21.0038C51.9848 24.4901 51.8958 24.7805 50.2857 27.063C49.0463 28.8201 47.9928 29.7654 46.3405 30.6024C42.5266 32.5347 39.728 31.93 36.8384 28.5498C34.8748 26.2527 34.4197 24.4019 35.1272 21.5934C35.6913 19.3519 37.8618 17.133 39.4894 17.133C40.6607 17.133 43.4593 19.4162 43.4593 20.3719C43.4593 20.7263 42.7836 21.8416 41.9574 22.8495C39.9604 25.2866 40.242 26.1156 42.9453 25.7588C45.9703 25.3597 47.2202 23.7701 47.2202 20.323C47.2202 18.0698 47.0413 17.4292 46.0167 16.0151C44.4266 13.8196 41.1208 12.3357 38.6875 12.7248C35.37 13.2551 32.0312 15.9261 30.6986 19.115C29.7349 21.4212 29.8837 26.9974 30.9639 29.0487C32.1273 31.2576 34.4594 33.66 36.7732 35.0315C38.4736 36.0398 39.0536 36.1464 42.8324 36.1464C47.5348 36.1464 48.7625 35.7247 51.6751 33.1105C55.8535 29.36 57.8367 21.2562 56.2258 14.5154C54.981 9.30487 51.5732 5.63674 45.6556 3.13617C42.3001 1.71873 41.6202 1.58083 37.4581 1.47552C34.4223 1.39905 32.8138 1.19053 32.6011 0.8462C32.3621 0.459664 32.0683 0.446292 31.4215 0.792712C30.2853 1.40072 30.1821 1.38192 29.9572 0.522345C29.8135 -0.0279991 29.7541 0.0238177 29.7178 0.731284C29.6631 1.7952 29.0442 1.987 28.6852 1.0518C28.549 0.6966 28.1708 0.538224 27.7993 0.68072C27.4429 0.817366 26.8938 0.715404 26.5787 0.453813C26.1387 0.0890064 25.9473 0.131212 25.7534 0.637679C25.5653 1.12743 24.9903 1.27536 23.5106 1.21393C22.4162 1.1688 20.7422 1.27369 19.7907 1.44752C18.3189 1.71622 17.924 1.62679 17.1451 0.847871C16.3073 0.0100272 16.1869 -0.0087773 15.7239 0.623889C15.2902 1.21727 14.2229 1.32049 8.2197 1.35099C4.37021 1.37063 1.13333 1.52776 1.02677 1.70034C0.60973 2.37563 1.43461 3.42032 3.08105 4.30121C5.3029 5.48965 11.5247 5.6171 13.6818 4.5185C14.4268 4.13907 15.1234 3.96941 15.2296 4.14158C15.3361 4.31374 14.5171 5.79136 13.4097 7.42526C11.5255 10.2046 11.3826 10.6045 11.1879 13.6357C10.9355 17.5688 11.2489 18.9695 12.4185 19.1417C13.1256 19.2453 13.533 18.7539 14.5844 16.5287C15.2964 15.021 15.8794 13.6374 15.8794 13.4531C15.8794 12.922 18.3691 9.5698 20.2328 7.59157C22.0949 5.61543 24.0196 4.4834 27.4324 3.35764C31.1829 2.12031 31.0638 3.08435 26.9648 7.14486C23.3502 10.7252 22.3427 12.4364 20.4685 18.1777C17.2872 27.9234 13.388 32.7933 7.74916 34.0632C3.24695 35.077 6.1583 37.0799 11.0032 36.3018C14.0244 35.8162 16.9441 34.1075 18.8384 31.716C19.5479 30.8201 20.4647 30.0872 20.8759 30.0872C21.8964 30.0872 30.1791 40.743 32.0571 44.4722C33.9058 48.1432 34.8639 53.118 34.2501 55.8564C33.5288 59.0753 30.8695 63.9874 28.6246 66.2477C25.3497 69.5452 20.7752 70.5782 15.5764 69.1942C9.85442 67.671 6.28074 63.0213 6.27238 57.0887C6.26612 52.8351 6.92092 51.1327 9.59492 48.4483C13.5154 44.5127 17.2563 44.1922 20.8956 47.48C23.0058 49.3868 24.0213 52.0069 23.6628 54.622C23.0827 58.8538 18.7761 60.8905 16.1665 58.1664C15.5488 57.522 15.0436 56.7544 15.0436 56.461C15.0436 56.1673 15.7018 55.1243 16.5062 54.1422C18.1978 52.0779 18.301 51.5606 17.0966 51.1782C15.5668 50.6927 13.477 51.3625 12.3525 52.6989C11.4624 53.7565 11.2827 54.3955 11.2827 56.5007C11.2827 60.2612 13.0098 62.6289 16.6545 63.865C19.0364 64.6723 23.1492 63.3907 25.31 61.1676C27.8269 58.5776 28.4165 57.0657 28.4103 53.2162C28.4057 50.3964 28.2268 49.5849 27.1341 47.4291C25.6163 44.4341 24.1922 42.8546 21.9386 41.664C19.6027 40.4304 12.2351 40.3506 10.0291 41.5349C5.9573 43.7208 3.47636 47.1344 2.25282 52.2346C1.11786 56.965 1.83327 62.9916 3.96569 66.6656C6.00535 70.1799 10.3061 73.3905 14.3324 74.4043C17.581 75.2225 17.2396 76.7962 13.6011 77.7761C8.97354 79.0222 5.56199 81.8738 3.30879 86.3798C2.05683 88.8829 1.87213 89.6802 1.73799 93.1532C1.58296 97.1702 2.28792 101.082 3.65689 103.804C4.66146 105.801 7.99653 109.081 10.1114 110.152C11.6947 110.955 12.7411 111.156 15.3432 111.157C19.7598 111.16 22.2286 110.238 24.8637 107.603C27.5185 104.949 28.4207 102.507 28.4178 97.9847C28.4161 95.0645 28.274 94.4206 27.3125 92.9701C25.4254 90.1231 24.1362 89.0103 21.9841 88.371C15.6495 86.4901 11.2827 89.2819 11.2827 95.2137C11.2827 97.4594 11.4332 97.9257 12.5798 99.2312C13.6843 100.489 14.1414 100.708 15.6625 100.708C16.7954 100.708 17.6528 100.462 18.0072 100.035C18.4928 99.4502 18.334 99.1618 16.7983 97.8413C14.7937 96.1168 14.6232 95.1799 16.001 93.4582C18.4924 90.3446 23.8266 93.4971 23.8149 98.0758C23.809 100.374 22.056 103.863 20.3945 104.885C17.9048 106.414 16.1038 106.683 13.4711 105.918C5.71744 103.664 3.69826 91.9071 9.9848 85.6205C14.9709 80.6348 24.6807 80.7318 29.1411 85.8123C31.4198 88.4073 33.1828 92.574 33.365 95.7941C33.6684 101.168 31.4018 105.765 21.5157 119.826C20.5746 121.165 19.9704 121.013 17.7828 118.887C15.0796 116.259 12.9989 115.305 9.3818 115.031C7.70653 114.904 6.0158 114.924 5.62466 115.074C4.99451 115.316 5.03253 115.466 5.95938 116.393C6.53522 116.968 7.92132 117.715 9.03998 118.052C12.1824 118.998 13.6613 120.122 15.497 122.959C17.7067 126.375 19.2466 129.686 20.8763 134.527C22.7008 139.945 22.9992 140.432 26.7692 144.167C28.5941 145.975 30.0872 147.642 30.0872 147.872C30.0872 150.209 21.1325 146.145 18.5592 142.639C16.9947 140.509 15.1598 136.905 14.3909 134.452C13.8439 132.707 13.4331 132.049 12.8928 132.049C11.7102 132.049 11.2827 133.407 11.2827 137.163C11.2827 140.328 11.4014 140.848 12.5309 142.629C14.23 145.308 15.5614 147.968 15.3232 148.206C15.2154 148.314 14.215 147.943 13.1001 147.381C11.9856 146.819 10.4658 146.229 9.72279 146.068C6.89668 145.457 4.08324e-05 148.557 4.07502e-05 150.439C4.07024e-05 151.531 1.87673 153.244 4.38775 154.444C6.90797 155.648 7.95558 155.686 10.9037 154.678C14.6416 153.402 15.0607 154.119 12.7846 157.894C11.6513 159.775 11.3053 160.876 11.0863 163.302C10.7432 167.099 11.3496 169.351 12.663 169.16C13.2827 169.069 13.7448 168.471 14.2162 167.151C16.7185 160.142 20.2913 155.911 25.4905 153.801C31.2134 151.477 31.6083 152.173 27.1466 156.72C23.4342 160.502 22.3322 162.367 20.425 168.096C17.5471 176.74 13.8121 181.573 8.4165 183.634C2.35101 185.952 6.53522 187.511 13.0186 185.349C15.6934 184.458 16.3863 184 18.4046 181.797C19.6787 180.407 20.8308 179.269 20.9649 179.269C21.26 179.269 28.137 187.912 29.9422 190.552C32.0679 193.66 33.4051 196.647 34.0558 199.739C34.584 202.25 34.5906 203.039 34.1038 205.28C32.8828 210.898 29.6768 216.046 26.1993 217.973C24.2127 219.074 23.6719 219.177 19.8492 219.177C16.1184 219.177 15.4151 219.051 13.2873 218.006C10.3567 216.567 7.29366 213.282 6.64595 210.885C5.89252 208.094 6.3501 202.752 7.54774 200.358C8.72323 198.009 12.2137 195.355 14.683 194.933C21.0293 193.849 26.3305 202.468 22.2792 207.283C20.42 209.492 16.7941 209.476 15.8739 207.254C15.1957 205.617 15.7824 204.212 17.5183 203.314C19.0214 202.537 18.8651 201.806 16.9792 200.79C15.721 200.113 15.5258 200.108 14.3244 200.73C11.9981 201.933 11.2827 203.279 11.2827 206.456C11.2827 208.93 11.4273 209.464 12.4148 210.638C15.7264 214.574 22.2938 214.454 25.8599 210.393C27.908 208.06 28.4157 206.503 28.4157 202.557C28.4157 198.299 27.2297 195.527 24.4245 193.228C22.0523 191.284 17.1234 189.57 14.7887 189.877C11.4795 190.311 8.24266 191.819 6.259 193.85C3.21686 196.964 2.31758 199.564 1.81195 206.712C1.25868 214.526 5.59123 221.137 12.7373 223.385C16.3319 224.516 17.133 224.901 17.133 225.495C17.133 225.812 16.8468 226.072 16.497 226.072C15.6098 226.072 9.76165 229.072 7.66265 230.605C2.47972 234.388 0.511103 241.681 2.52026 249.656C4.43371 257.251 8.72447 260.93 15.6704 260.929C18.5233 260.928 19.3703 260.75 21.4484 259.714C24.3619 258.26 26.0517 256.634 27.4086 253.979C28.826 251.205 28.8373 246.272 27.4337 243.098C24.7868 237.113 17.563 235.372 13.1034 239.645L11.2827 241.39L11.2827 244.517C11.2827 247.42 11.3696 247.728 12.4895 248.801C14.0662 250.312 16.5304 250.652 17.9174 249.551L18.9111 248.762L17.1861 247.376C15.3035 245.863 15.0411 244.791 16.202 243.358C17.9374 241.215 19.8275 241.26 21.9068 243.492C25.2039 247.031 23.7192 252.816 18.8797 255.284C15.5108 257.003 11.7779 255.968 8.80638 252.492C6.90253 250.264 6.26109 248.145 6.28658 244.169C6.31751 239.344 7.90418 236.407 11.9179 233.742C13.7724 232.511 14.7415 232.188 17.6269 231.839C23.4563 231.133 26.9636 232.487 30.116 236.658C32.482 239.788 33.5744 243.406 33.3458 247.356C33.0855 251.853 32.2852 253.479 25.3518 263.599C24.0443 265.507 22.5031 267.999 21.9269 269.135C21.351 270.272 20.7844 271.202 20.6674 271.202C20.5504 271.202 19.2508 270.082 17.7795 268.713C16.3077 267.344 14.4394 265.947 13.627 265.607C10.416 264.265 6.21304 264.406 5.9318 265.864C5.80769 266.509 6.82062 266.979 9.72612 267.624C11.1477 267.939 13.5656 270.077 15.7908 272.987C17.3691 275.052 20.6277 282.52 21.6954 286.521C22.2821 288.719 25.211 292.722 27.7613 294.812C29.9547 296.61 31.6321 299.166 30.2339 298.58C29.8085 298.402 28.4825 298.017 27.287 297.726C24.7843 297.115 21.1124 295.126 19.6858 293.607C18.0615 291.878 15.4815 287.425 14.815 285.201C14.4707 284.052 13.815 282.642 13.3575 282.067C12.5338 281.032 12.5196 281.03 11.8761 281.858C11.3625 282.518 11.2539 283.586 11.3588 286.943C11.4912 291.174 11.4992 291.203 13.2676 293.764C14.2442 295.179 15.0436 296.511 15.0436 296.723C15.0436 297.348 13.5589 297.172 11.2965 296.28C8.6317 295.23 6.21345 295.438 3.49474 296.953C1.36357 298.139 0.424604 299.079 0.638557 299.809C0.70876 300.049 0.875066 300.745 1.00837 301.356C1.29336 302.663 3.72332 303.998 6.89668 304.591C8.57403 304.905 9.53348 304.803 12.2029 304.03C13.9952 303.511 15.4615 303.15 15.4615 303.228C15.4615 303.306 14.5898 304.73 13.5246 306.392C11.8623 308.985 11.5389 309.85 11.243 312.487C11.0533 314.177 11.0115 316.127 11.1498 316.818C11.6713 319.424 13.4715 318.569 14.8104 315.079C15.7598 312.604 18.8074 308.001 20.7368 306.127C22.4977 304.417 26.1784 302.543 27.7759 302.543C29.7529 302.543 29.4729 303.662 26.7755 306.546C23.1379 310.434 22.3326 311.814 20.4681 317.35C17.0674 327.446 13.0787 332.376 7.59703 333.259C5.72829 333.56 4.86956 334.525 5.89377 335.173C6.74165 335.71 11.5293 335.637 13.5326 335.057C14.7565 334.703 16.039 333.749 17.9796 331.75C20.1484 329.515 20.8496 329.02 21.4045 329.331C21.7881 329.545 23.2758 331.363 24.7099 333.369C26.1441 335.376 28.0128 337.864 28.8624 338.898C33.0583 344.007 35.1878 350.657 34.0996 355.256C33.192 359.091 29.7069 365.107 27.1717 367.217C25.6543 368.478 23.6184 368.985 20.0694 368.985C15.8831 368.985 14.4431 368.587 11.3914 366.585C9.57402 365.393 8.94302 364.626 7.68271 362.075C6.20969 359.095 6.16915 358.889 6.3434 355.242C6.50846 351.792 6.6426 351.305 7.96268 349.349C9.57359 346.963 12.3525 344.899 14.4949 344.497C16.2095 344.176 19.1016 345.185 20.9699 346.757C23.6356 349 24.5829 353.311 22.9854 355.931C21.8813 357.741 19.7347 359.047 18.3866 358.727C17.1455 358.432 15.0436 356.536 15.0436 355.71C15.0436 355.389 15.7227 354.298 16.5526 353.285C18.555 350.842 18.2759 349.99 15.5722 350.296C14.0603 350.466 13.3403 350.816 12.4453 351.818C11.4423 352.941 11.2827 353.47 11.2827 355.675C11.2827 359.436 13.0048 361.829 16.5843 363.04C17.5897 363.381 18.5362 363.347 20.4463 362.901C23.7547 362.129 24.3664 361.721 26.567 358.811L28.4157 356.366L28.4157 352.606C28.4157 348.151 27.9385 346.919 24.946 343.645C21.8909 340.302 21.0589 339.963 15.8794 339.952C11.078 339.942 10.1177 340.254 6.87829 342.876C4.95521 344.433 2.86667 348.354 2.14165 351.769C0.645234 358.818 2.74298 366.334 7.1871 369.848C11.7996 373.494 14.3035 374.295 21.9281 374.566C25.1404 374.68 27.8198 374.929 27.8829 375.118C28.0158 375.519 30.8068 375.509 31.2088 375.107C31.7265 374.59 34.1665 374.839 34.6838 375.463C34.9701 375.807 35.416 376.086 35.675 376.083C35.9345 376.079 35.8698 375.902 35.5317 375.688C34.3675 374.952 35.5818 374.644 39.4602 374.694C43.501 374.746 45.1308 375.035 45.1308 375.7C45.1308 375.914 45.3188 376.089 45.5486 376.089C45.7785 376.089 45.9665 375.828 45.9665 375.508C45.9665 374.717 47.2181 374.509 51.3325 374.613C53.6091 374.67 54.9312 374.884 55.1448 375.229C55.3884 375.623 55.6847 375.644 56.3111 375.308C57.6658 374.583 57.7389 373.682 56.5334 372.565C54.3679 370.557 48.6163 370.131 44.8604 371.7C44.0192 372.052 43.2461 372.255 43.1425 372.151C43.0384 372.047 43.8667 370.602 44.9824 368.94L47.0112 365.918L47.1554 361.796C47.3267 356.895 46.8804 355.837 45.277 357.344C44.7367 357.851 44.295 358.478 44.295 358.738C44.295 358.997 43.5407 360.769 42.6189 362.676C39.7861 368.533 35.68 371.813 30.0437 372.721C27.2699 373.168 26.409 372.96 27.7792 372.175C29.3872 371.254 34.3621 366.245 35.3654 364.538C35.9245 363.586 37.1125 360.633 38.0051 357.977C40.0385 351.924 41.7251 348.741 44.453 345.808C46.2816 343.842 47.0484 343.358 49.7191 342.482C51.4382 341.918 52.912 341.254 52.9944 341.007C53.0767 340.76 52.4917 340.285 51.6944 339.952C50.5427 339.471 49.7061 339.433 47.6242 339.769C44.3606 340.294 43.8203 340.585 40.8617 343.406C39.5458 344.661 38.222 345.589 37.9144 345.47C37.6073 345.352 36.8376 344.256 36.2036 343.035C35.5697 341.813 34.0232 339.395 32.7662 337.662C29.1169 332.629 27.7964 330.512 26.4984 327.616C25.4287 325.228 25.282 324.419 25.2862 320.93C25.2904 317.365 25.4182 316.704 26.5398 314.453C28.1695 311.181 31.2334 308.232 34.1285 307.149C40.6996 304.69 49.1311 308.069 51.3722 314.059C53.1122 318.709 52.1055 324.851 49.129 327.746C47.3447 329.483 44.4647 330.959 42.86 330.959C39.9228 330.959 36.4398 328.331 35.2513 325.22C34.6583 323.667 34.6312 323.078 35.0641 321.144C35.6358 318.59 37.7118 316.333 39.4894 316.333C40.6607 316.333 43.4592 318.616 43.4592 319.572C43.4592 319.926 42.8011 321.02 41.9967 322.001C40.3022 324.07 40.2086 324.531 41.4062 324.911C42.9361 325.397 45.0259 324.727 46.1504 323.39C47.0459 322.326 47.2197 321.699 47.2185 319.539C47.2168 316.462 46.3322 314.745 43.9966 313.283C41.6883 311.838 40.6298 311.689 37.8254 312.412C34.5455 313.257 33.0478 314.448 31.4198 317.502C30.2514 319.694 30.0872 320.401 30.0872 323.24C30.0872 327.059 30.9296 329.108 33.6813 331.98C36.3754 334.792 37.604 335.281 42.4146 335.457L46.5933 335.61L49.2418 334.022C52.6864 331.955 54.612 329.334 55.8668 325C57.3842 319.761 56.965 314.004 54.7495 309.662C53.0566 306.344 47.4989 302.46 42.771 301.291C40.4125 300.708 40.1192 299.772 42.12 299.217C42.9716 298.98 43.9503 298.782 44.295 298.775C45.3819 298.755 48.5519 297.141 50.6584 295.534C54.757 292.409 56.8301 287.535 56.8309 281.021C56.8313 278.439 55.7603 273.978 54.6187 271.806C53.7002 270.059 50.2493 266.848 48.1771 265.813C45.8951 264.673 40.8475 264.6 37.8179 265.663C34.9968 266.654 31.7186 269.906 30.7875 272.638C29.9288 275.159 29.8674 280.314 30.6735 282.243C31.7742 284.878 34.0863 286.954 37.0005 287.924C39.55 288.772 39.7945 288.784 41.8851 288.162C44.6218 287.348 44.7751 287.242 46.1224 285.247C46.9953 283.955 47.2201 283.124 47.2201 281.191C47.2201 278.942 47.0994 278.633 45.6134 277.07C44.3276 275.719 43.7117 275.381 42.5303 275.381C41.6829 275.381 40.8166 275.668 40.4957 276.054C40.0101 276.639 40.1689 276.928 41.7046 278.248C43.6836 279.951 43.8521 280.76 42.5951 282.525C41.8571 283.561 41.4518 283.739 39.8237 283.739C38.1823 283.739 37.7226 283.533 36.5258 282.264C35.7319 281.422 35.011 280.129 34.8464 279.251C34.4991 277.399 35.2141 274.476 36.4326 272.765C37.459 271.324 41.0042 269.541 42.855 269.535C44.5507 269.529 48.2013 271.385 49.4763 272.9C51.1043 274.835 52.2351 278.387 52.2322 281.561C52.2288 285.63 51.653 287.191 49.1846 289.816C47.4094 291.704 46.4751 292.315 44.0861 293.148C38.7636 295.004 33.8431 294.295 30.2811 291.16C28.1457 289.28 24.9603 283.344 24.2678 279.954C23.7864 277.598 24.2967 273.944 25.5775 270.575C26.9874 266.868 36.2325 254.487 37.591 254.487C37.8505 254.487 38.9019 255.398 39.9274 256.511C42.9921 259.838 47.3677 261.666 50.5782 260.961C51.5736 260.742 51.8356 260.483 51.7361 259.815C51.6417 259.179 50.8369 258.643 48.6827 257.781C44.0393 255.922 41.3623 252.07 38.2128 242.718C36.5718 237.846 33.9057 233.469 31.4687 231.646C29.5953 230.246 28.4491 228.981 28.4295 228.293C28.3614 225.87 36.7962 229.511 39.6779 233.15C40.7853 234.548 42.9022 238.479 44.9348 242.911C45.7684 244.728 46.7939 244.837 47.244 243.155C47.4049 242.553 47.417 240.373 47.2711 238.31C47.0405 235.046 46.8436 234.331 45.7551 232.801C45.0668 231.834 44.392 230.818 44.2553 230.542C44.1187 230.267 43.8007 229.639 43.5487 229.146C42.8303 227.743 43.336 227.72 46.1061 229.031C47.6322 229.753 49.3735 230.25 50.3768 230.25C52.1628 230.25 55.337 228.873 57.4172 227.194C59.0766 225.855 58.69 224.573 56.113 222.872C52.9309 220.771 51.3417 220.362 48.9919 221.037C45.8842 221.931 43.875 222.079 43.8888 221.414C43.8955 221.103 44.6477 219.724 45.5603 218.35C47.0706 216.077 47.226 215.587 47.2853 212.917C47.3739 208.912 47.2611 207.989 46.5996 207.314C45.6439 206.34 44.9603 207.033 43.7083 210.246C41.1597 216.788 37.9604 220.305 32.584 222.477C30.1043 223.478 28.8891 223.78 28.531 223.484C27.8971 222.961 29.2966 220.996 31.6517 219.104C32.5226 218.404 33.7524 217.085 34.3842 216.173C35.5112 214.547 38.0737 208.803 38.5901 206.745C38.7339 206.172 39.6068 204.06 40.5304 202.052C42.7622 197.197 45.8529 194.088 50.1002 192.421C51.7336 191.78 53.0704 191.007 53.0704 190.703C53.0704 189.92 51.2702 189.566 48.75 189.852C44.7154 190.31 43.4659 190.904 40.9257 193.573C39.4242 195.151 38.2922 196.015 37.9153 195.871C37.5835 195.743 36.6976 194.55 35.9467 193.22C35.1957 191.889 33.4047 189.193 31.9668 187.229C24.9456 177.636 23.5758 171.603 26.8942 164.889C29.9622 158.682 33.5113 156.428 39.6453 156.791C43.8224 157.039 46.2615 158.156 49.1181 161.128C51.7295 163.846 52.2309 165.221 52.2284 169.658C52.2255 175.001 49.4871 179.285 45.1537 180.724C41.9587 181.785 39.9574 181.306 37.5551 178.905C34.0211 175.373 33.8389 170.338 37.1631 168.098C39.0009 166.859 40.9578 166.868 42.1329 168.118C43.4216 169.49 43.2629 170.725 41.5755 172.463C40.2007 173.878 40.1522 174.019 40.7949 174.729C41.8195 175.862 42.8583 176.042 44.2411 175.327C46.3882 174.217 47.2201 172.596 47.2201 169.521C47.2201 167.191 47.0618 166.609 46.1228 165.493C44.501 163.565 42.2182 162.554 39.4894 162.554C36.6984 162.554 34.5322 163.545 32.6584 165.679C30.6639 167.951 30.0872 169.734 30.0872 173.631C30.0872 176.597 30.2514 177.399 31.2514 179.313C32.64 181.971 36.0001 184.866 38.5429 185.595C44.7375 187.371 51.5531 184.709 54.411 179.396C57.0039 174.575 57.5141 165.846 55.4482 161.646C53.1105 156.894 49.5699 154.037 43.3548 151.889C42.2629 151.511 41.3703 150.983 41.3711 150.714C41.372 150.446 42.7852 149.766 44.5119 149.203C48.025 148.057 52.6321 144.889 54.2116 142.533C57.4602 137.688 57.5543 127.667 54.406 121.841C51.9948 117.38 46.669 114.549 41.6699 115.072C36.9872 115.561 31.5339 119.545 30.5122 123.222C30.2811 124.055 30.091 126.094 30.0897 127.754C30.0843 134.295 33.9701 138.735 39.6984 138.735C42.5968 138.735 44.4275 137.869 45.9406 135.78C47.0634 134.23 47.2202 133.672 47.2202 131.23C47.2202 128.981 47.0517 128.265 46.3443 127.506C44.6623 125.7 42.2303 125.299 40.5947 126.556L39.611 127.313L41.326 128.671C43.3422 130.269 43.5232 131.453 41.9854 132.991C40.6215 134.355 39.5981 134.601 38.2325 133.893C34.4574 131.934 33.7148 126.272 36.7912 122.904C38.2333 121.325 41.0548 119.953 42.8859 119.94C45.7818 119.919 49.4817 122.445 51.0805 125.532C52.1574 127.612 52.5999 133.646 51.844 135.937C50.5339 139.907 46.5302 143.181 41.5445 144.359C38.7013 145.031 38.4573 145.026 35.3257 144.224C32.8912 143.6 31.6964 143.038 30.6041 142.002C28.307 139.824 25.9912 135.957 24.8825 132.447C23.8984 129.333 23.8842 129.111 24.4459 125.644C25.0614 121.842 26.1111 119.541 29.5322 114.498C32.3145 110.396 36.833 104.695 37.4134 104.553C37.6963 104.483 39.0001 105.552 40.3114 106.926C41.6223 108.301 43.5303 109.818 44.5512 110.298C46.9118 111.407 51.1327 111.897 52.017 111.163C53.1114 110.254 52.7198 109.533 50.8766 109.063C46.9903 108.07 45.9364 107.301 42.6791 103.079C41.4626 101.502 40.2855 99.0302 38.6487 94.6162C35.556 86.2753 35.3566 85.9176 31.8632 82.4396C27.6121 78.2078 27.8449 77.0837 32.6367 78.7026C34.1072 79.199 36.0399 80.1635 36.9316 80.8454C39.6829 82.9499 42.756 87.5916 43.8725 91.3304C44.1513 92.2631 44.7388 93.4854 45.178 94.0466C45.9603 95.0457 45.9899 95.0503 46.5988 94.2559C47.0417 93.6776 47.2202 92.3747 47.2202 89.7199C47.2202 86.5532 47.0588 85.6732 46.1441 83.845C45.5524 82.6624 44.7062 81.3068 44.2637 80.8325C42.4246 78.8601 43.58 78.497 47.412 79.8438C50.9368 81.0828 53.1181 80.7017 56.3821 78.2759C57.7782 77.2383 58.9207 76.1585 58.9207 75.8765C58.9207 75.5944 58.4978 74.9851 57.9805 74.5225ZM50.5632 375.738C49.9886 375.738 49.7533 375.832 50.0408 375.948C50.3279 376.064 50.798 376.064 51.0855 375.948C51.3726 375.832 51.1377 375.738 50.5632 375.738ZM40.2905 375.705C39.8037 375.725 39.7046 375.824 40.0377 375.957C40.3394 376.078 40.7 376.063 40.8387 375.924C40.9775 375.785 40.7309 375.687 40.2905 375.705ZM36.9475 0.0330113C36.4607 0.0530694 36.3616 0.152106 36.6947 0.285409C36.9964 0.406176 37.357 0.391132 37.4957 0.252397C37.6345 0.113662 37.3879 0.0150426 36.9475 0.0330113ZM21.486 0.0330107C20.9992 0.0530687 20.9002 0.152106 21.2332 0.285408C21.5349 0.406175 21.8956 0.391131 22.0343 0.252396C22.173 0.113661 21.9265 0.015042 21.486 0.0330107ZM15.4615 153.361C15.2317 153.361 15.0436 153.173 15.0436 152.943C15.0436 152.713 15.2317 152.525 15.4615 152.525C15.6913 152.525 15.8794 152.713 15.8794 152.943C15.8794 153.173 15.6913 153.361 15.4615 153.361ZM11.4917 -2.07319e-06C11.1469 -2.08826e-06 10.8649 0.182192 10.8649 0.404921C10.8649 0.627231 11.1469 0.701196 11.4917 0.569147C11.8364 0.43668 12.1185 0.254485 12.1185 0.164224C12.1185 0.0739622 11.8364 -2.05812e-06 11.4917 -2.07319e-06Z" fill="#FFB703"/>
</svg>
